# xmcd CD database file
#
# Track frame offsets:
#	150
#	17197
#	38294
#	61281
#	82349
#	99367
#	126276
#	143352
#	161116
#	188599
#
# Disc length: 2733 seconds
#
# Revision: 0
# Processed by: cddbd v1.5.2PL0 Copyright (c) Steve Scherf et al.
# Submitted via: CDex 1.51
#
DISCID=790aab0a
DTITLE=Rodrigo Gonzalez - Bajo la Piel
DYEAR=2002
DGENRE=Jazz
TTITLE0=I've got you under my skin
TTITLE1=So many stars
TTITLE2=You and the night and the music
TTITLE3=You've got a friend
TTITLE4=Dahoud
TTITLE5=A song for you
TTITLE6=Flor de lis
TTITLE7=Voy a apagar la luz
TTITLE8=My one and only love
TTITLE9=Los mareados
EXTD=YEAR: 2002
EXTT0=
EXTT1=
EXTT2=
EXTT3=
EXTT4=
EXTT5=
EXTT6=
EXTT7=
EXTT8=
EXTT9=
PLAYORDER=
